REM MD5 2c22a0de8a521732dd756f6177f4a6a8
FILE "Euro Demo 61 (Europe).bin" BINARY
  TRACK 01 MODE2/2352
    INDEX 01 00:00:00
  TRACK 02 AUDIO
    INDEX 00 40:10:51
    INDEX 01 40:12:51
  TRACK 03 AUDIO
    INDEX 00 44:33:29
    INDEX 01 44:35:29
  TRACK 04 AUDIO
    INDEX 00 45:35:52
    INDEX 01 45:37:52
  TRACK 05 AUDIO
    INDEX 00 46:35:16
    INDEX 01 46:37:16
REM LEADOUT 51:20:73
